<svg class="marks" width="917" height="476" viewBox="0 0 917 476" version="1.1" xmlns="http://www.w3.org/2000/svg" xmlns:xlink="http://www.w3.org/1999/xlink"><rect width="917" height="476" fill="#F3F7F7"></rect><g fill="none" stroke-miterlimit="10" transform="translate(226,31)"><g class="mark-group role-frame root" role="graphics-object" aria-roledescription="group mark container"><g transform="translate(0,0)"><path class="background" aria-hidden="true" d="M0,0h0v0h0Z"></path><g><g class="mark-group role-scope concat_0_group" role="graphics-object" aria-roledescription="group mark container"><g transform="translate(0,0)"><path class="background" aria-hidden="true" d="M0.5,0.5h500v40h-500Z"></path><g><g class="mark-text role-mark concat_0_marks" role="graphics-object" aria-roledescription="text mark container" pointer-events="none"><text text-anchor="middle" transform="translate(260,29)" font-family="Helvetica Neue" font-size="30px" font-weight="600" fill="#5D646F">Top-10 airlines by number of crashes</text></g></g><path class="foreground" aria-hidden="true" d="" display="none"></path></g></g><g class="mark-group role-scope concat_1_group" role="graphics-object" aria-roledescription="group mark container"><g transform="translate(0,70)"><path class="background" aria-hidden="true" d="M0,0h0v0h0Z"></path><g><g class="mark-group role-scope concat_1_concat_0_group" role="graphics-object" aria-roledescription="group mark container"><g transform="translate(0,0)"><path class="background" aria-hidden="true" d="M0.5,0.5h500v300h-500Z"></path><g><g class="mark-group role-axis" role="graphics-symbol" aria-roledescription="axis" aria-label="X-axis for a linear scale with values from 0 to 160"><g transform="translate(0.5,300.5)"><path class="background" aria-hidden="true" d="M0,0h0v0h0Z" pointer-events="none"></path><g><g class="mark-rule role-axis-grid" pointer-events="none"><line transform="translate(63,0)" x2="0" y2="-300" stroke="#ddd" stroke-width="1" stroke-dasharray="0,2,0" opacity="1"></line><line transform="translate(125,0)" x2="0" y2="-300" stroke="#ddd" stroke-width="1" stroke-dasharray="0,2,0" opacity="1"></line><line transform="translate(188,0)" x2="0" y2="-300" stroke="#ddd" stroke-width="1" stroke-dasharray="0,2,0" opacity="1"></line><line transform="translate(250,0)" x2="0" y2="-300" stroke="#ddd" stroke-width="1" stroke-dasharray="0,2,0" opacity="1"></line><line transform="translate(313,0)" x2="0" y2="-300" stroke="#ddd" stroke-width="1" stroke-dasharray="0,2,0" opacity="1"></line><line transform="translate(375,0)" x2="0" y2="-300" stroke="#ddd" stroke-width="1" stroke-dasharray="0,2,0" opacity="1"></line><line transform="translate(438,0)" x2="0" y2="-300" stroke="#ddd" stroke-width="1" stroke-dasharray="0,2,0" opacity="1"></line></g></g><path class="foreground" aria-hidden="true" d="" pointer-events="none" display="none"></path></g></g><g class="mark-group role-axis"><g transform="translate(0.5,300.5)"><path class="background" aria-hidden="true" d="M0,0h0v0h0Z" pointer-events="none"></path><g></g><path class="foreground" aria-hidden="true" d="" pointer-events="none" display="none"></path></g></g><g class="mark-group role-axis" role="graphics-symbol" aria-roledescription="axis" aria-label="Y-axis titled 'Total number of crashes by airline' for a discrete scale with 10 values: Aeroflot, Military - U.S. Army, Private, Merpati Nusantara Airlines, Military - Afghan Republican Air Force, ending with China Airlines (Taiwan)"><g transform="translate(0.5,0.5)"><path class="background" aria-hidden="true" d="M0,0h0v0h0Z" pointer-events="none"></path><g><g class="mark-text role-axis-title" pointer-events="none"><text text-anchor="middle" transform="translate(120,-14)" font-family="Helvetica Neue" font-size="18px" font-weight="300" fill="#5D646F" opacity="1">Total number of crashes by airline</text></g></g><path class="foreground" aria-hidden="true" d="" pointer-events="none" display="none"></path></g></g><g class="mark-rect role-mark concat_1_concat_0_layer_0_marks" role="graphics-symbol" aria-roledescription="rect mark container" pointer-events="none"><path d="M0,31.5L210.625,31.5C213.38457512247,31.5,215.625,33.74042487753,215.625,36.5L215.625,53.5C215.625,56.25957512247,213.38457512247,58.5,210.625,58.5L0,58.5C0,58.5,0,58.5,0,58.5L0,31.5C0,31.5,0,31.5,0,31.5Z" fill="#d53e4f" opacity="0.9"></path><path d="M0,121.5L41.875,121.5C44.63457512247,121.5,46.875,123.74042487753,46.875,126.5L46.875,143.5C46.875,146.25957512247,44.63457512247,148.5,41.875,148.5L0,148.5C0,148.5,0,148.5,0,148.5L0,121.5C0,121.5,0,121.5,0,121.5Z" fill="#d53e4f" opacity="0.9"></path><path d="M0,211.5L35.625,211.5C38.38457512247,211.5,40.625,213.74042487753,40.625,216.5L40.625,233.5C40.625,236.25957512247,38.38457512247,238.5,35.625,238.5L0,238.5C0,238.5,0,238.5,0,238.5L0,211.5C0,211.5,0,211.5,0,211.5Z" fill="#d53e4f" opacity="0.9"></path><path d="M0,1.5L438.75,1.5C441.50957512247,1.5,443.75,3.74042487753,443.75,6.5L443.75,23.5C443.75,26.25957512247,441.50957512247,28.5,438.75,28.5L0,28.5C0,28.5,0,28.5,0,28.5L0,1.5C0,1.5,0,1.5,0,1.5Z" fill="#69b8d6" opacity="0.9"></path><path d="M0,61.5L63.75,61.5C66.50957512247,61.5,68.75,63.74042487753,68.75,66.5L68.75,83.5C68.75,86.25957512247,66.50957512247,88.5,63.75,88.5L0,88.5C0,88.5,0,88.5,0,88.5L0,61.5C0,61.5,0,61.5,0,61.5Z" fill="#69b8d6" opacity="0.9"></path><path d="M0,91.5L51.25,91.5C54.00957512247,91.5,56.25,93.74042487753,56.25,96.5L56.25,113.5C56.25,116.25957512247,54.00957512247,118.5,51.25,118.5L0,118.5C0,118.5,0,118.5,0,118.5L0,91.5C0,91.5,0,91.5,0,91.5Z" fill="#69b8d6" opacity="0.9"></path><path d="M0,151.5L38.75,151.5C41.50957512247,151.5,43.75,153.74042487753,43.75,156.5L43.75,173.5C43.75,176.25957512247,41.50957512247,178.5,38.75,178.5L0,178.5C0,178.5,0,178.5,0,178.5L0,151.5C0,151.5,0,151.5,0,151.5Z" fill="#69b8d6" opacity="0.9"></path><path d="M0,181.5L35.625,181.5C38.38457512247,181.5,40.625,183.74042487753,40.625,186.5L40.625,203.5C40.625,206.25957512247,38.38457512247,208.5,35.625,208.5L0,208.5C0,208.5,0,208.5,0,208.5L0,181.5C0,181.5,0,181.5,0,181.5Z" fill="#69b8d6" opacity="0.9"></path><path d="M0,241.5L32.5,241.5C35.25957512247,241.5,37.5,243.74042487753,37.5,246.5L37.5,263.5C37.5,266.25957512247,35.25957512247,268.5,32.5,268.5L0,268.5C0,268.5,0,268.5,0,268.5L0,241.5C0,241.5,0,241.5,0,241.5Z" fill="#69b8d6" opacity="0.9"></path><path d="M0,271.5L32.5,271.5C35.25957512247,271.5,37.5,273.74042487753,37.5,276.5L37.5,293.5C37.5,296.25957512247,35.25957512247,298.5,32.5,298.5L0,298.5C0,298.5,0,298.5,0,298.5L0,271.5C0,271.5,0,271.5,0,271.5Z" fill="#69b8d6" opacity="0.9"></path></g><g class="mark-text role-mark concat_1_concat_0_layer_1_marks" role="graphics-object" aria-roledescription="text mark container" pointer-events="none"><text text-anchor="start" transform="translate(218.625,49)" font-family="Helvetica Neue" font-size="14px" fill="#5D646F">69</text><text text-anchor="start" transform="translate(49.875,139)" font-family="Helvetica Neue" font-size="14px" fill="#5D646F">15</text><text text-anchor="start" transform="translate(43.625,229)" font-family="Helvetica Neue" font-size="14px" fill="#5D646F">13</text><text text-anchor="start" transform="translate(446.75,19)" font-family="Helvetica Neue" font-size="14px" fill="#5D646F">142</text><text text-anchor="start" transform="translate(71.75,79)" font-family="Helvetica Neue" font-size="14px" fill="#5D646F">22</text><text text-anchor="start" transform="translate(59.25,109)" font-family="Helvetica Neue" font-size="14px" fill="#5D646F">18</text><text text-anchor="start" transform="translate(46.75,169)" font-family="Helvetica Neue" font-size="14px" fill="#5D646F">14</text><text text-anchor="start" transform="translate(43.625,199)" font-family="Helvetica Neue" font-size="14px" fill="#5D646F">13</text><text text-anchor="start" transform="translate(40.5,259)" font-family="Helvetica Neue" font-size="14px" fill="#5D646F">12</text><text text-anchor="start" transform="translate(40.5,289)" font-family="Helvetica Neue" font-size="14px" fill="#5D646F">12</text></g><g class="mark-text role-mark concat_1_concat_0_layer_2_marks" role="graphics-object" aria-roledescription="text mark container" pointer-events="none"><text text-anchor="end" transform="translate(-4,49)" font-family="Helvetica Neue" font-size="14px" fill="#5D646F">U.S. Army</text><text text-anchor="end" transform="translate(-4,139)" font-family="Helvetica Neue" font-size="14px" fill="#5D646F">Afghan Republican Air Force</text><text text-anchor="end" transform="translate(-4,229)" font-family="Helvetica Neue" font-size="14px" fill="#5D646F">Russian Air Force</text><text text-anchor="end" transform="translate(-4,19)" font-family="Helvetica Neue" font-size="14px" fill="#5D646F">Aeroflot</text><text text-anchor="end" transform="translate(-4,79)" font-family="Helvetica Neue" font-size="14px" fill="#5D646F">Private</text><text text-anchor="end" transform="translate(-4,109)" font-family="Helvetica Neue" font-size="14px" fill="#5D646F">Merpati Nusantara Airlines</text><text text-anchor="end" transform="translate(-4,169)" font-family="Helvetica Neue" font-size="14px" fill="#5D646F">Philippine Air Lines</text><text text-anchor="end" transform="translate(-4,199)" font-family="Helvetica Neue" font-size="14px" fill="#5D646F">Indian Airlines</text><text text-anchor="end" transform="translate(-4,259)" font-family="Helvetica Neue" font-size="14px" fill="#5D646F">Pan American World Airways</text><text text-anchor="end" transform="translate(-4,289)" font-family="Helvetica Neue" font-size="14px" fill="#5D646F">China Airlines (Taiwan)</text></g></g><path class="foreground" aria-hidden="true" d="" display="none"></path></g></g><g class="mark-group role-scope concat_1_concat_1_group" role="graphics-object" aria-roledescription="group mark container"><g transform="translate(550,0)"><path class="background" aria-hidden="true" d="M0.5,0.5h20v280h-20Z"></path><g><g class="mark-group role-axis" role="graphics-symbol" aria-roledescription="axis" aria-label="Y-axis for a linear scale with values from 0 to 2,600"><g transform="translate(0.5,0.5)"><path class="background" aria-hidden="true" d="M0,0h0v0h0Z" pointer-events="none"></path><g><g class="mark-text role-axis-label" pointer-events="none"><text text-anchor="end" transform="translate(-2,283)" font-family="sans-serif" font-size="10px" opacity="1">0</text><text text-anchor="end" transform="translate(-2,229.15384615384616)" font-family="sans-serif" font-size="10px" opacity="1">500</text><text text-anchor="end" transform="translate(-2,175.30769230769232)" font-family="sans-serif" font-size="10px" opacity="1">1,000</text><text text-anchor="end" transform="translate(-2,121.46153846153848)" font-family="sans-serif" font-size="10px" opacity="1">1,500</text><text text-anchor="end" transform="translate(-2,67.6153846153846)" font-family="sans-serif" font-size="10px" opacity="1">2,000</text><text text-anchor="end" transform="translate(-2,13.769230769230763)" font-family="sans-serif" font-size="10px" opacity="1">2,500</text></g></g><path class="foreground" aria-hidden="true" d="" pointer-events="none" display="none"></path></g></g><g class="mark-rect role-mark concat_1_concat_1_layer_0_marks" role="graphics-symbol" aria-roledescription="rect mark container"><path d="M1,7.107692307692295h18v231.32307692307694h-18Z" fill="#69b8d6" opacity="0.9"></path><path d="M1,238.43076923076924h18v41.56923076923076h-18Z" fill="#d53e4f" opacity="0.9"></path></g><g class="mark-text role-mark concat_1_concat_1_layer_1_marks" role="graphics-object" aria-roledescription="text mark container" pointer-events="none"><text text-anchor="start" transform="translate(30,82.67692307692309)" font-family="Helvetica Neue" font-size="14px" fill="#5D646F" opacity="0.9">2148</text><text text-anchor="start" transform="translate(30,272.4307692307692)" font-family="Helvetica Neue" font-size="14px" fill="#5D646F" opacity="0.9">386</text></g><g class="mark-text role-mark concat_1_concat_1_layer_2_marks" role="graphics-object" aria-roledescription="text mark container" pointer-events="none"><text text-anchor="start" transform="translate(30,62.67692307692308)" font-family="Helvetica Neue" font-size="14px" fill="#5D646F" opacity="0.9">Civil</text><text text-anchor="start" transform="translate(30,252.43076923076924)" font-family="Helvetica Neue" font-size="14px" fill="#5D646F" opacity="0.9">Military</text></g><g class="mark-group role-title"><g transform="translate(10,-18)"><path class="background" aria-hidden="true" d="M0,0h0v0h0Z" pointer-events="none"></path><g><g class="mark-text role-title-text" role="graphics-symbol" aria-roledescription="title" aria-label="Title text 'Total amount'" pointer-events="none"><text text-anchor="start" transform="translate(-10,11)" font-family="Helvetica Neue" font-size="14px" font-weight="600" fill="#5D646F" opacity="1">Total amount</text></g></g><path class="foreground" aria-hidden="true" d="" pointer-events="none" display="none"></path></g></g></g><path class="foreground" aria-hidden="true" d="" display="none"></path></g></g></g><path class="foreground" aria-hidden="true" d="" display="none"></path></g></g><g class="mark-group role-scope concat_2_group" role="graphics-object" aria-roledescription="group mark container"><g transform="translate(0,372)"><path class="background" aria-hidden="true" d="M0,0h0v0h0Z"></path><g><g class="mark-group role-scope concat_2_concat_0_group" role="graphics-object" aria-roledescription="group mark container"><g transform="translate(0,0)"><path class="background" aria-hidden="true" d="M0.5,0.5h500v20h-500Z"></path><g><g class="mark-text role-mark concat_2_concat_0_marks" role="graphics-object" aria-roledescription="text mark container" pointer-events="none"><text text-anchor="end" transform="translate(650,14)" font-family="Helvetica Neue" font-size="14px" fill="#5D646F">* The legend enables to filter only civil or military airlines</text></g></g><path class="foreground" aria-hidden="true" d="" display="none"></path></g></g><g class="mark-group role-scope concat_2_concat_1_group" role="graphics-object" aria-roledescription="group mark container"><g transform="translate(0,22)"><path class="background" aria-hidden="true" d="M0.5,0.5h500v20h-500Z"></path><g><g class="mark-text role-mark concat_2_concat_1_marks" role="graphics-object" aria-roledescription="text mark container" pointer-events="none"><text text-anchor="end" transform="translate(650,14)" font-family="Helvetica Neue" font-size="14px" fill="#5D646F">Data: the Aviation Safety Network database (http://aviation-safety.net)</text></g></g><path class="foreground" aria-hidden="true" d="" display="none"></path></g></g></g><path class="foreground" aria-hidden="true" d="" display="none"></path></g></g></g><path class="foreground" aria-hidden="true" d="" display="none"></path></g></g></g></svg>