<svg class="marks" width="921" height="677" viewBox="0 0 921 677" version="1.1" xmlns="http://www.w3.org/2000/svg" xmlns:xlink="http://www.w3.org/1999/xlink"><rect width="921" height="677" fill="#F3F7F7"></rect><g fill="none" stroke-miterlimit="10" transform="translate(72,93)"><g class="mark-group role-frame root" role="graphics-object" aria-roledescription="group mark container"><g transform="translate(0,0)"><path class="background" aria-hidden="true" d="M0,0h0v0h0Z"></path><g><g class="mark-group role-scope concat_0_group" role="graphics-object" aria-roledescription="group mark container"><g transform="translate(0,0)"><path class="background" aria-hidden="true" d="M0.5,0.5h800v250h-800Z"></path><g><g class="mark-group role-axis" role="graphics-symbol" aria-roledescription="axis" aria-label="X-axis for a discrete scale with 50 values: 1970, 1971, 1972, 1973, 1974, ending with 2019"><g transform="translate(0.5,250.5)"><path class="background" aria-hidden="true" d="M0,0h0v0h0Z" pointer-events="none"></path><g><g class="mark-rule role-axis-grid" pointer-events="none"><line transform="translate(8,-250)" x2="0" y2="250" stroke="#ddd" stroke-width="1" stroke-dasharray="0,2,0" opacity="1"></line><line transform="translate(168,-250)" x2="0" y2="250" stroke="#ddd" stroke-width="1" stroke-dasharray="0,2,0" opacity="1"></line><line transform="translate(328,-250)" x2="0" y2="250" stroke="#ddd" stroke-width="1" stroke-dasharray="0,2,0" opacity="1"></line><line transform="translate(488,-250)" x2="0" y2="250" stroke="#ddd" stroke-width="1" stroke-dasharray="0,2,0" opacity="1"></line><line transform="translate(648,-250)" x2="0" y2="250" stroke="#ddd" stroke-width="1" stroke-dasharray="0,2,0" opacity="1"></line><line transform="translate(792,-250)" x2="0" y2="250" stroke="#ddd" stroke-width="1" stroke-dasharray="0,2,0" opacity="1"></line></g></g><path class="foreground" aria-hidden="true" d="" pointer-events="none" display="none"></path></g></g><g class="mark-group role-axis" role="graphics-symbol" aria-roledescription="axis" aria-label="Y-axis for a linear scale with values from 0 to 7"><g transform="translate(0.5,0.5)"><path class="background" aria-hidden="true" d="M0,0h0v0h0Z" pointer-events="none"></path><g><g class="mark-rule role-axis-grid" pointer-events="none"><line transform="translate(0,212)" x2="800" y2="0" stroke="#ddd" stroke-width="1" stroke-dasharray="0,2,0" opacity="1"></line><line transform="translate(0,173)" x2="800" y2="0" stroke="#ddd" stroke-width="1" stroke-dasharray="0,2,0" opacity="1"></line><line transform="translate(0,135)" x2="800" y2="0" stroke="#ddd" stroke-width="1" stroke-dasharray="0,2,0" opacity="1"></line><line transform="translate(0,96)" x2="800" y2="0" stroke="#ddd" stroke-width="1" stroke-dasharray="0,2,0" opacity="1"></line><line transform="translate(0,58)" x2="800" y2="0" stroke="#ddd" stroke-width="1" stroke-dasharray="0,2,0" opacity="1"></line><line transform="translate(0,19)" x2="800" y2="0" stroke="#ddd" stroke-width="1" stroke-dasharray="0,2,0" opacity="1"></line></g></g><path class="foreground" aria-hidden="true" d="" pointer-events="none" display="none"></path></g></g><g class="mark-group role-axis" role="graphics-symbol" aria-roledescription="axis" aria-label="X-axis titled 'year' for a discrete scale with 50 values: 1970, 1971, 1972, 1973, 1974, ending with 2019"><g transform="translate(0.5,250.5)"><path class="background" aria-hidden="true" d="M0,0h0v0h0Z" pointer-events="none"></path><g><g class="mark-rule role-axis-tick" pointer-events="none"><line transform="translate(8,0)" x2="0" y2="5" stroke="lightgray" stroke-width="1" stroke-dasharray="0,2,0" opacity="1"></line><line transform="translate(168,0)" x2="0" y2="5" stroke="lightgray" stroke-width="1" stroke-dasharray="0,2,0" opacity="1"></line><line transform="translate(328,0)" x2="0" y2="5" stroke="lightgray" stroke-width="1" stroke-dasharray="0,2,0" opacity="1"></line><line transform="translate(488,0)" x2="0" y2="5" stroke="lightgray" stroke-width="1" stroke-dasharray="0,2,0" opacity="1"></line><line transform="translate(648,0)" x2="0" y2="5" stroke="lightgray" stroke-width="1" stroke-dasharray="0,2,0" opacity="1"></line><line transform="translate(792,0)" x2="0" y2="5" stroke="lightgray" stroke-width="1" stroke-dasharray="0,2,0" opacity="1"></line></g><g class="mark-text role-axis-label" pointer-events="none"><text text-anchor="middle" transform="translate(8,31)" font-family="Helvetica Neue" font-size="14px" fill="#5D646F" opacity="1">1970</text><text text-anchor="middle" transform="translate(168,31)" font-family="Helvetica Neue" font-size="14px" fill="#5D646F" opacity="1">1980</text><text text-anchor="middle" transform="translate(328,31)" font-family="Helvetica Neue" font-size="14px" fill="#5D646F" opacity="1">1990</text><text text-anchor="middle" transform="translate(488,31)" font-family="Helvetica Neue" font-size="14px" fill="#5D646F" opacity="1">2000</text><text text-anchor="middle" transform="translate(648,31)" font-family="Helvetica Neue" font-size="14px" fill="#5D646F" opacity="1">2010</text><text text-anchor="middle" transform="translate(792,31)" font-family="Helvetica Neue" font-size="14px" fill="#5D646F" opacity="1">2019</text></g><g class="mark-text role-axis-title" pointer-events="none"><text text-anchor="middle" transform="translate(770,9)" font-family="Helvetica Neue" font-size="18px" font-weight="300" fill="#5D646F" opacity="1">year</text></g></g><path class="foreground" aria-hidden="true" d="" pointer-events="none" display="none"></path></g></g><g class="mark-group role-axis" role="graphics-symbol" aria-roledescription="axis" aria-label="Y-axis titled 'Fatal accidents per million flights' for a linear scale with values from 0 to 7"><g transform="translate(0.5,0.5)"><path class="background" aria-hidden="true" d="M0,0h0v0h0Z" pointer-events="none"></path><g><g class="mark-text role-axis-label" pointer-events="none"><text text-anchor="end" transform="translate(-7,215.53846153846155)" font-family="Helvetica Neue" font-size="14px" fill="#5D646F" opacity="1">1</text><text text-anchor="end" transform="translate(-7,177.07692307692307)" font-family="Helvetica Neue" font-size="14px" fill="#5D646F" opacity="1">2</text><text text-anchor="end" transform="translate(-7,138.6153846153846)" font-family="Helvetica Neue" font-size="14px" fill="#5D646F" opacity="1">3</text><text text-anchor="end" transform="translate(-7,100.15384615384615)" font-family="Helvetica Neue" font-size="14px" fill="#5D646F" opacity="1">4</text><text text-anchor="end" transform="translate(-7,61.69230769230768)" font-family="Helvetica Neue" font-size="14px" fill="#5D646F" opacity="1">5</text><text text-anchor="end" transform="translate(-7,23.23076923076922)" font-family="Helvetica Neue" font-size="14px" fill="#5D646F" opacity="1">6</text></g><g class="mark-text role-axis-title" pointer-events="none"><text text-anchor="middle" transform="translate(90,-14)" font-family="Helvetica Neue" font-size="18px" font-weight="300" fill="#5D646F" opacity="1">Fatal accidents per million flights</text></g></g><path class="foreground" aria-hidden="true" d="" pointer-events="none" display="none"></path></g></g><g class="mark-line role-mark concat_0_marks" role="graphics-symbol" aria-roledescription="line mark container"><path d="M8,5.769230769230776L24,59.6153846153846L40,59.6153846153846L56,9.61538461538461L72,8.846153846153864L88,71.15384615384615L104,44.999999999999986L120,52.307692307692335L136,95L152,51.53846153846153L168,131.53846153846155L184,111.53846153846153L200,134.6153846153846L216,135.76923076923075L232,148.84615384615384L248,123.84615384615385L264,134.6153846153846L280,125L296,100.38461538461537L312,101.92307692307692L328,139.23076923076925L344,118.84615384615385L360,126.15384615384615L376,141.92307692307693L392,140.3846153846154L408,147.3076923076923L424,150.3846153846154L440,177.3076923076923L456,158.07692307692307L472,170.3846153846154L488,185.38461538461536L504,187.69230769230768L520,188.84615384615384L536,206.53846153846155L552,198.07692307692307L568,196.15384615384616L584,212.69230769230768L600,205.76923076923077L616,210.76923076923077L632,216.15384615384613L648,215L664,209.6153846153846L680,227.6923076923077L696,221.53846153846155L712,228.46153846153845L728,238.46153846153848L744,232.3076923076923L760,239.23076923076923L776,235.76923076923075L792,230.3846153846154" stroke="#d53e4f" stroke-width="2" opacity="0.8"></path></g><g class="mark-group role-title"><g transform="translate(-29.654884338378906,-62)"><path class="background" aria-hidden="true" d="M0,0h0v0h0Z" pointer-events="none"></path><g><g class="mark-text role-title-text" role="graphics-symbol" aria-roledescription="title" aria-label="Title text 'Dynamic of fatal flights rate'" pointer-events="none"><text text-anchor="start" transform="translate(0,24)" font-family="Helvetica Neue" font-size="30px" font-weight="600" fill="#5D646F" opacity="1">Dynamic of fatal flights rate</text></g></g><path class="foreground" aria-hidden="true" d="" pointer-events="none" display="none"></path></g></g></g><path class="foreground" aria-hidden="true" d="" display="none"></path></g></g><g class="mark-group role-scope concat_1_group" role="graphics-object" aria-roledescription="group mark container"><g transform="translate(0,334)"><path class="background" aria-hidden="true" d="M0,0h0v0h0Z"></path><g><g class="mark-group role-scope concat_1_concat_0_group" role="graphics-object" aria-roledescription="group mark container"><g transform="translate(0,0)"><path class="background" aria-hidden="true" d="M0.5,0.5h370v170h-370Z"></path><g><g class="mark-group role-axis" role="graphics-symbol" aria-roledescription="axis" aria-label="Y-axis for a linear scale with values from 0 to 260"><g transform="translate(0.5,0.5)"><path class="background" aria-hidden="true" d="M0,0h0v0h0Z" pointer-events="none"></path><g><g class="mark-rule role-axis-grid" pointer-events="none"><line transform="translate(0,170)" x2="370" y2="0" stroke="#ddd" stroke-width="1" stroke-dasharray="0,2,0" opacity="1"></line><line transform="translate(0,137)" x2="370" y2="0" stroke="#ddd" stroke-width="1" stroke-dasharray="0,2,0" opacity="1"></line><line transform="translate(0,105)" x2="370" y2="0" stroke="#ddd" stroke-width="1" stroke-dasharray="0,2,0" opacity="1"></line><line transform="translate(0,72)" x2="370" y2="0" stroke="#ddd" stroke-width="1" stroke-dasharray="0,2,0" opacity="1"></line><line transform="translate(0,39)" x2="370" y2="0" stroke="#ddd" stroke-width="1" stroke-dasharray="0,2,0" opacity="1"></line><line transform="translate(0,7)" x2="370" y2="0" stroke="#ddd" stroke-width="1" stroke-dasharray="0,2,0" opacity="1"></line></g></g><path class="foreground" aria-hidden="true" d="" pointer-events="none" display="none"></path></g></g><g class="mark-group role-axis"><g transform="translate(0.5,170.5)"><path class="background" aria-hidden="true" d="M0,0h0v0h0Z" pointer-events="none"></path><g></g><path class="foreground" aria-hidden="true" d="" pointer-events="none" display="none"></path></g></g><g class="mark-group role-axis" role="graphics-symbol" aria-roledescription="axis" aria-label="Y-axis titled 'Total number of accidents by month' for a linear scale with values from 0 to 260"><g transform="translate(0.5,0.5)"><path class="background" aria-hidden="true" d="M0,0h0v0h0Z" pointer-events="none"></path><g><g class="mark-text role-axis-label" pointer-events="none"><text text-anchor="end" transform="translate(-7,174)" font-family="Helvetica Neue" font-size="14px" fill="#5D646F" opacity="1">0</text><text text-anchor="end" transform="translate(-7,141.30769230769232)" font-family="Helvetica Neue" font-size="14px" fill="#5D646F" opacity="1">50</text><text text-anchor="end" transform="translate(-7,108.61538461538463)" font-family="Helvetica Neue" font-size="14px" fill="#5D646F" opacity="1">100</text><text text-anchor="end" transform="translate(-7,75.92307692307693)" font-family="Helvetica Neue" font-size="14px" fill="#5D646F" opacity="1">150</text><text text-anchor="end" transform="translate(-7,43.230769230769226)" font-family="Helvetica Neue" font-size="14px" fill="#5D646F" opacity="1">200</text><text text-anchor="end" transform="translate(-7,10.538461538461533)" font-family="Helvetica Neue" font-size="14px" fill="#5D646F" opacity="1">250</text></g><g class="mark-text role-axis-title" pointer-events="none"><text text-anchor="middle" transform="translate(130,-14)" font-family="Helvetica Neue" font-size="18px" font-weight="300" fill="#5D646F" opacity="1">Total number of accidents by month</text></g></g><path class="foreground" aria-hidden="true" d="" pointer-events="none" display="none"></path></g></g><g class="mark-rect role-mark concat_1_concat_0_layer_0_marks" role="graphics-symbol" aria-roledescription="rect mark container"><path d="M97.04166666666666,51.00000000000001L118.79166666666666,51.00000000000001C120.44741174014865,51.00000000000001,121.79166666666666,52.344254926518005,121.79166666666666,54.00000000000001L121.79166666666666,170C121.79166666666666,170,121.79166666666666,170,121.79166666666666,170L94.04166666666666,170C94.04166666666666,170,94.04166666666666,170,94.04166666666666,170L94.04166666666666,54.00000000000001C94.04166666666666,52.344254926518005,95.38592159318466,51.00000000000001,97.04166666666666,51.00000000000001Z" fill="#69b8d6"></path><path d="M220.37499999999997,15.038461538461542L242.12499999999997,15.038461538461542C243.78074507348197,15.038461538461542,245.12499999999997,16.38271646497954,245.12499999999997,18.03846153846154L245.12499999999997,170C245.12499999999997,170,245.12499999999997,170,245.12499999999997,170L217.37499999999997,170C217.37499999999997,170,217.37499999999997,170,217.37499999999997,170L217.37499999999997,18.03846153846154C217.37499999999997,16.38271646497954,218.71925492651798,15.038461538461542,220.37499999999997,15.038461538461542Z" fill="#69b8d6"></path><path d="M343.70833333333326,20.269230769230774L365.45833333333326,20.269230769230774C367.1140784068153,20.269230769230774,368.45833333333326,21.613485695748775,368.45833333333326,23.269230769230774L368.45833333333326,170C368.45833333333326,170,368.45833333333326,170,368.45833333333326,170L340.70833333333326,170C340.70833333333326,170,340.70833333333326,170,340.70833333333326,170L340.70833333333326,23.269230769230774C340.70833333333326,21.613485695748775,342.05258825985123,20.269230769230774,343.70833333333326,20.269230769230774Z" fill="#69b8d6"></path><path d="M35.374999999999986,51.00000000000001L57.124999999999986,51.00000000000001C58.78074507348199,51.00000000000001,60.124999999999986,52.344254926518005,60.124999999999986,54.00000000000001L60.124999999999986,170C60.124999999999986,170,60.124999999999986,170,60.124999999999986,170L32.374999999999986,170C32.374999999999986,170,32.374999999999986,170,32.374999999999986,170L32.374999999999986,54.00000000000001C32.374999999999986,52.344254926518005,33.71925492651798,51.00000000000001,35.374999999999986,51.00000000000001Z" fill="#69b8d6"></path><path d="M4.541666666666657,16.999999999999996L26.291666666666657,16.999999999999996C27.947411740148656,16.999999999999996,29.291666666666657,18.344254926517998,29.291666666666657,19.999999999999996L29.291666666666657,170C29.291666666666657,170,29.291666666666657,170,29.291666666666657,170L1.5416666666666572,170C1.5416666666666572,170,1.5416666666666572,170,1.5416666666666572,170L1.5416666666666572,19.999999999999996C1.5416666666666572,18.344254926517998,2.885921593184657,16.999999999999996,4.541666666666657,16.999999999999996Z" fill="#69b8d6"></path><path d="M189.54166666666666,20.923076923076923L211.29166666666666,20.923076923076923C212.94741174014865,20.923076923076923,214.29166666666666,22.267331849594925,214.29166666666666,23.923076923076923L214.29166666666666,170C214.29166666666666,170,214.29166666666666,170,214.29166666666666,170L186.54166666666666,170C186.54166666666666,170,186.54166666666666,170,186.54166666666666,170L186.54166666666666,23.923076923076923C186.54166666666666,22.267331849594925,187.88592159318466,20.923076923076923,189.54166666666666,20.923076923076923Z" fill="#69b8d6"></path><path d="M158.70833333333331,46.42307692307693L180.45833333333331,46.42307692307693C182.1140784068153,46.42307692307693,183.45833333333331,47.767331849594925,183.45833333333331,49.42307692307693L183.45833333333331,170C183.45833333333331,170,183.45833333333331,170,183.45833333333331,170L155.70833333333331,170C155.70833333333331,170,155.70833333333331,170,155.70833333333331,170L155.70833333333331,49.42307692307693C155.70833333333331,47.767331849594925,157.05258825985132,46.42307692307693,158.70833333333331,46.42307692307693Z" fill="#69b8d6"></path><path d="M66.20833333333331,39.230769230769226L87.95833333333331,39.230769230769226C89.61407840681531,39.230769230769226,90.95833333333331,40.575024157287224,90.95833333333331,42.230769230769226L90.95833333333331,170C90.95833333333331,170,90.95833333333331,170,90.95833333333331,170L63.20833333333332,170C63.20833333333332,170,63.20833333333332,170,63.20833333333332,170L63.20833333333332,42.230769230769226C63.20833333333332,40.575024157287224,64.55258825985132,39.230769230769226,66.20833333333331,39.230769230769226Z" fill="#69b8d6"></path><path d="M127.87499999999999,43.15384615384615L149.625,43.15384615384615C151.280745073482,43.15384615384615,152.625,44.49810108036415,152.625,46.15384615384615L152.625,170C152.625,170,152.625,170,152.625,170L124.87499999999999,170C124.87499999999999,170,124.87499999999999,170,124.87499999999999,170L124.87499999999999,46.15384615384615C124.87499999999999,44.49810108036415,126.21925492651799,43.15384615384615,127.87499999999999,43.15384615384615Z" fill="#69b8d6"></path><path d="M312.875,37.26923076923077L334.625,37.26923076923077C336.280745073482,37.26923076923077,337.625,38.613485695748764,337.625,40.26923076923077L337.625,170C337.625,170,337.625,170,337.625,170L309.875,170C309.875,170,309.875,170,309.875,170L309.875,40.26923076923077C309.875,38.613485695748764,311.219254926518,37.26923076923077,312.875,37.26923076923077Z" fill="#69b8d6"></path><path d="M282.04166666666663,30.076923076923084L303.79166666666663,30.076923076923084C305.44741174014865,30.076923076923084,306.79166666666663,31.421178003441085,306.79166666666663,33.07692307692308L306.79166666666663,170C306.79166666666663,170,306.79166666666663,170,306.79166666666663,170L279.04166666666663,170C279.04166666666663,170,279.04166666666663,170,279.04166666666663,170L279.04166666666663,33.07692307692308C279.04166666666663,31.421178003441085,280.3859215931846,30.076923076923084,282.04166666666663,30.076923076923084Z" fill="#69b8d6"></path><path d="M251.20833333333331,11.769230769230765L272.9583333333333,11.769230769230765C274.61407840681534,11.769230769230765,275.9583333333333,13.113485695748764,275.9583333333333,14.769230769230765L275.9583333333333,170C275.9583333333333,170,275.9583333333333,170,275.9583333333333,170L248.20833333333331,170C248.20833333333331,170,248.20833333333331,170,248.20833333333331,170L248.20833333333331,14.769230769230765C248.20833333333331,13.113485695748764,249.55258825985132,11.769230769230765,251.20833333333331,11.769230769230765Z" fill="#69b8d6"></path></g><g class="mark-text role-mark concat_1_concat_0_layer_1_marks" role="graphics-object" aria-roledescription="text mark container"><text text-anchor="start" transform="translate(107.91666666666666,160) rotate(270) translate(0,5)" font-family="Helvetica Neue" font-size="16px" fill="#F3F7F7">April</text><text text-anchor="start" transform="translate(231.24999999999997,160) rotate(270) translate(0,5)" font-family="Helvetica Neue" font-size="16px" fill="#F3F7F7">August</text><text text-anchor="start" transform="translate(354.58333333333326,160) rotate(270) translate(0,5)" font-family="Helvetica Neue" font-size="16px" fill="#F3F7F7">December</text><text text-anchor="start" transform="translate(46.249999999999986,160) rotate(270) translate(0,5)" font-family="Helvetica Neue" font-size="16px" fill="#F3F7F7">February</text><text text-anchor="start" transform="translate(15.416666666666657,160) rotate(270) translate(0,5)" font-family="Helvetica Neue" font-size="16px" fill="#F3F7F7">January</text><text text-anchor="start" transform="translate(200.41666666666666,160) rotate(270) translate(0,5)" font-family="Helvetica Neue" font-size="16px" fill="#F3F7F7">July</text><text text-anchor="start" transform="translate(169.58333333333331,160) rotate(270) translate(0,5)" font-family="Helvetica Neue" font-size="16px" fill="#F3F7F7">June</text><text text-anchor="start" transform="translate(77.08333333333331,160) rotate(270) translate(0,5)" font-family="Helvetica Neue" font-size="16px" fill="#F3F7F7">March</text><text text-anchor="start" transform="translate(138.75,160) rotate(270) translate(0,5)" font-family="Helvetica Neue" font-size="16px" fill="#F3F7F7">May</text><text text-anchor="start" transform="translate(323.75,160) rotate(270) translate(0,5)" font-family="Helvetica Neue" font-size="16px" fill="#F3F7F7">November</text><text text-anchor="start" transform="translate(292.91666666666663,160) rotate(270) translate(0,5)" font-family="Helvetica Neue" font-size="16px" fill="#F3F7F7">October</text><text text-anchor="start" transform="translate(262.0833333333333,160) rotate(270) translate(0,5)" font-family="Helvetica Neue" font-size="16px" fill="#F3F7F7">September</text></g></g><path class="foreground" aria-hidden="true" d="" display="none"></path></g></g><g class="mark-group role-scope concat_1_concat_1_group" role="graphics-object" aria-roledescription="group mark container"><g transform="translate(421,0)"><path class="background" aria-hidden="true" d="M0.5,0.5h370v170h-370Z"></path><g><g class="mark-group role-axis" role="graphics-symbol" aria-roledescription="axis" aria-label="Y-axis for a linear scale with values from 0 to 450"><g transform="translate(0.5,0.5)"><path class="background" aria-hidden="true" d="M0,0h0v0h0Z" pointer-events="none"></path><g><g class="mark-rule role-axis-grid" pointer-events="none"><line transform="translate(0,170)" x2="370" y2="0" stroke="#ddd" stroke-width="1" stroke-dasharray="0,2,0" opacity="1"></line><line transform="translate(0,132)" x2="370" y2="0" stroke="#ddd" stroke-width="1" stroke-dasharray="0,2,0" opacity="1"></line><line transform="translate(0,94)" x2="370" y2="0" stroke="#ddd" stroke-width="1" stroke-dasharray="0,2,0" opacity="1"></line><line transform="translate(0,57)" x2="370" y2="0" stroke="#ddd" stroke-width="1" stroke-dasharray="0,2,0" opacity="1"></line><line transform="translate(0,19)" x2="370" y2="0" stroke="#ddd" stroke-width="1" stroke-dasharray="0,2,0" opacity="1"></line></g></g><path class="foreground" aria-hidden="true" d="" pointer-events="none" display="none"></path></g></g><g class="mark-group role-axis"><g transform="translate(0.5,170.5)"><path class="background" aria-hidden="true" d="M0,0h0v0h0Z" pointer-events="none"></path><g></g><path class="foreground" aria-hidden="true" d="" pointer-events="none" display="none"></path></g></g><g class="mark-group role-axis" role="graphics-symbol" aria-roledescription="axis" aria-label="Y-axis titled 'Total number of accidents by day of week' for a linear scale with values from 0 to 450"><g transform="translate(0.5,0.5)"><path class="background" aria-hidden="true" d="M0,0h0v0h0Z" pointer-events="none"></path><g><g class="mark-text role-axis-label" pointer-events="none"><text text-anchor="end" transform="translate(-7,174)" font-family="Helvetica Neue" font-size="13px" fill="#5D646F" opacity="1">0</text><text text-anchor="end" transform="translate(-7,136.22222222222223)" font-family="Helvetica Neue" font-size="13px" fill="#5D646F" opacity="1">100</text><text text-anchor="end" transform="translate(-7,98.44444444444444)" font-family="Helvetica Neue" font-size="13px" fill="#5D646F" opacity="1">200</text><text text-anchor="end" transform="translate(-7,60.66666666666667)" font-family="Helvetica Neue" font-size="13px" fill="#5D646F" opacity="1">300</text><text text-anchor="end" transform="translate(-7,22.888888888888896)" font-family="Helvetica Neue" font-size="13px" fill="#5D646F" opacity="1">400</text></g><g class="mark-text role-axis-title" pointer-events="none"><text text-anchor="middle" transform="translate(150,-14)" font-family="Helvetica Neue" font-size="18px" font-weight="300" fill="#5D646F" opacity="1">Total number of accidents by day of week</text></g></g><path class="foreground" aria-hidden="true" d="" pointer-events="none" display="none"></path></g></g><g class="mark-rect role-mark concat_1_concat_1_layer_0_marks" role="graphics-symbol" aria-roledescription="rect mark container"><path d="M217.07142857142856,32.11111111111111L258.6428571428571,32.11111111111111C260.29860221633913,32.11111111111111,261.6428571428571,33.455366037629105,261.6428571428571,35.11111111111111L261.6428571428571,170C261.6428571428571,170,261.6428571428571,170,261.6428571428571,170L214.07142857142856,170C214.07142857142856,170,214.07142857142856,170,214.07142857142856,170L214.07142857142856,35.11111111111111C214.07142857142856,33.455366037629105,215.41568349794656,32.11111111111111,217.07142857142856,32.11111111111111Z" fill="#69b8d6"></path><path d="M5.642857142857139,42.31111111111112L47.21428571428571,42.31111111111112C48.87003078776771,42.31111111111112,50.21428571428571,43.655366037629115,50.21428571428571,45.31111111111112L50.21428571428571,170C50.21428571428571,170,50.21428571428571,170,50.21428571428571,170L2.642857142857139,170C2.642857142857139,170,2.642857142857139,170,2.642857142857139,170L2.642857142857139,45.31111111111112C2.642857142857139,43.655366037629115,3.9871120693751387,42.31111111111112,5.642857142857139,42.31111111111112Z" fill="#69b8d6"></path><path d="M269.92857142857144,37.77777777777778L311.5,37.77777777777778C313.155745073482,37.77777777777778,314.5,39.122032704295776,314.5,40.77777777777778L314.5,170C314.5,170,314.5,170,314.5,170L266.92857142857144,170C266.92857142857144,170,266.92857142857144,170,266.92857142857144,170L266.92857142857144,40.77777777777778C266.92857142857144,39.122032704295776,268.2728263550894,37.77777777777778,269.92857142857144,37.77777777777778Z" fill="#69b8d6"></path><path d="M322.7857142857142,52.88888888888889L364.3571428571428,52.88888888888889C366.0128879306248,52.88888888888889,367.3571428571428,54.23314381540689,367.3571428571428,55.88888888888889L367.3571428571428,170C367.3571428571428,170,367.3571428571428,170,367.3571428571428,170L319.7857142857142,170C319.7857142857142,170,319.7857142857142,170,319.7857142857142,170L319.7857142857142,55.88888888888889C319.7857142857142,54.23314381540689,321.1299692122322,52.88888888888889,322.7857142857142,52.88888888888889Z" fill="#69b8d6"></path><path d="M164.2142857142857,20.4L205.78571428571428,20.4C207.44145935919627,20.4,208.78571428571428,21.744254926518,208.78571428571428,23.4L208.78571428571428,170C208.78571428571428,170,208.78571428571428,170,208.78571428571428,170L161.2142857142857,170C161.2142857142857,170,161.2142857142857,170,161.2142857142857,170L161.2142857142857,23.4C161.2142857142857,21.744254926518,162.5585406408037,20.4,164.2142857142857,20.4Z" fill="#69b8d6"></path><path d="M58.49999999999999,32.866666666666674L100.07142857142856,32.866666666666674C101.72717364491055,32.866666666666674,103.07142857142856,34.21092159318467,103.07142857142856,35.866666666666674L103.07142857142856,170C103.07142857142856,170,103.07142857142856,170,103.07142857142856,170L55.49999999999999,170C55.49999999999999,170,55.49999999999999,170,55.49999999999999,170L55.49999999999999,35.866666666666674C55.49999999999999,34.21092159318467,56.84425492651799,32.866666666666674,58.49999999999999,32.866666666666674Z" fill="#69b8d6"></path><path d="M111.35714285714285,14.355555555555554L152.92857142857142,14.355555555555554C154.5843165020534,14.355555555555554,155.92857142857142,15.699810482073554,155.92857142857142,17.355555555555554L155.92857142857142,170C155.92857142857142,170,155.92857142857142,170,155.92857142857142,170L108.35714285714285,170C108.35714285714285,170,108.35714285714285,170,108.35714285714285,170L108.35714285714285,17.355555555555554C108.35714285714285,15.699810482073554,109.70139778366085,14.355555555555554,111.35714285714285,14.355555555555554Z" fill="#69b8d6"></path></g><g class="mark-text role-mark concat_1_concat_1_layer_1_marks" role="graphics-object" aria-roledescription="text mark container"><text text-anchor="start" transform="translate(237.85714285714283,160) rotate(270) translate(0,5)" font-family="Helvetica Neue" font-size="16px" fill="#F3F7F7">Friday</text><text text-anchor="start" transform="translate(26.428571428571423,160) rotate(270) translate(0,5)" font-family="Helvetica Neue" font-size="16px" fill="#F3F7F7">Monday</text><text text-anchor="start" transform="translate(290.7142857142857,160) rotate(270) translate(0,5)" font-family="Helvetica Neue" font-size="16px" fill="#F3F7F7">Saturday</text><text text-anchor="start" transform="translate(343.5714285714285,160) rotate(270) translate(0,5)" font-family="Helvetica Neue" font-size="16px" fill="#F3F7F7">Sunday</text><text text-anchor="start" transform="translate(184.99999999999997,160) rotate(270) translate(0,5)" font-family="Helvetica Neue" font-size="16px" fill="#F3F7F7">Thursday</text><text text-anchor="start" transform="translate(79.28571428571428,160) rotate(270) translate(0,5)" font-family="Helvetica Neue" font-size="16px" fill="#F3F7F7">Tuesday</text><text text-anchor="start" transform="translate(132.14285714285714,160) rotate(270) translate(0,5)" font-family="Helvetica Neue" font-size="16px" fill="#F3F7F7">Wednesday</text></g></g><path class="foreground" aria-hidden="true" d="" display="none"></path></g></g></g><path class="foreground" aria-hidden="true" d="" display="none"></path></g></g><g class="mark-group role-scope concat_2_group" role="graphics-object" aria-roledescription="group mark container"><g transform="translate(0,533)"><path class="background" aria-hidden="true" d="M0.5,0.5h800v20h-800Z"></path><g><g class="mark-text role-mark concat_2_marks" role="graphics-object" aria-roledescription="text mark container"><text text-anchor="end" transform="translate(800,14)" font-family="Helvetica Neue" font-size="14px" fill="#5D646F">Data: the Aviation Safety Network database (http://aviation-safety.net)</text></g></g><path class="foreground" aria-hidden="true" d="" display="none"></path></g></g></g><path class="foreground" aria-hidden="true" d="" display="none"></path></g></g></g></svg>